<svg width="400" height="300" xmlns="http://www.w3.org/2000/svg">
  <!-- Background -->
  <rect width="400" height="300" fill="#4B5563"/>
  
  <!-- Code Editor Interface -->
  <rect x="50" y="50" width="300" height="200" rx="5" ry="5" fill="#1F2937"/>
  
  <!-- Code Lines -->
  <rect x="70" y="80" width="120" height="8" rx="4" ry="4" fill="#6366F1" opacity="0.8"/>
  <rect x="70" y="100" width="200" height="8" rx="4" ry="4" fill="#8B5CF6" opacity="0.7"/>
  <rect x="70" y="120" width="160" height="8" rx="4" ry="4" fill="#F97316" opacity="0.8"/>
  <rect x="70" y="140" width="180" height="8" rx="4" ry="4" fill="#6366F1" opacity="0.8"/>
  <rect x="70" y="160" width="140" height="8" rx="4" ry="4" fill="#8B5CF6" opacity="0.7"/>
  <rect x="70" y="180" width="170" height="8" rx="4" ry="4" fill="#F97316" opacity="0.8"/>
  
  <!-- Line Numbers -->
  <rect x="60" y="80" width="4" height="8" rx="2" ry="2" fill="#9CA3AF"/>
  <rect x="60" y="100" width="4" height="8" rx="2" ry="2" fill="#9CA3AF"/>
  <rect x="60" y="120" width="4" height="8" rx="2" ry="2" fill="#9CA3AF"/>
  <rect x="60" y="140" width="4" height="8" rx="2" ry="2" fill="#9CA3AF"/>
  <rect x="60" y="160" width="4" height="8" rx="2" ry="2" fill="#9CA3AF"/>
  <rect x="60" y="180" width="4" height="8" rx="2" ry="2" fill="#9CA3AF"/>
  
  <!-- Cursor -->
  <rect x="250" y="120" width="2" height="8" fill="#FFFFFF"/>
</svg> 