<svg xmlns="http://www.w3.org/2000/svg" viewBox="0 0 800 600" width="800" height="600">
  <!-- Gradient Background -->
  <defs>
    <linearGradient id="grad1" x1="0%" y1="0%" x2="100%" y2="100%">
      <stop offset="0%" style="stop-color:#4f46e5;stop-opacity:0.2" />
      <stop offset="100%" style="stop-color:#f97316;stop-opacity:0.2" />
    </linearGradient>
  </defs>
  <rect width="800" height="600" fill="url(#grad1)"/>
  
  <!-- Device Frame -->
  <rect x="200" y="100" width="400" height="280" rx="10" ry="10" fill="#ffffff" stroke="#e5e5e5" stroke-width="2"/>
  <rect x="210" y="110" width="380" height="240" rx="5" ry="5" fill="#f0f0f0"/>
  
  <!-- Abstract learning concepts -->
  <circle cx="300" cy="180" r="30" fill="#4f46e5" opacity="0.7"/>
  <rect x="350" y="160" width="180" height="10" rx="5" ry="5" fill="#4f46e5" opacity="0.5"/>
  <rect x="350" y="180" width="140" height="10" rx="5" ry="5" fill="#4f46e5" opacity="0.5"/>
  <rect x="350" y="200" width="160" height="10" rx="5" ry="5" fill="#4f46e5" opacity="0.5"/>
  
  <circle cx="300" cy="250" r="20" fill="#f97316" opacity="0.7"/>
  <rect x="350" y="240" width="160" height="10" rx="5" ry="5" fill="#f97316" opacity="0.5"/>
  <rect x="350" y="260" width="120" height="10" rx="5" ry="5" fill="#f97316" opacity="0.5"/>
  
  <!-- Additional elements -->
  <rect x="200" y="420" width="400" height="80" rx="8" ry="8" fill="#ffffff" stroke="#e5e5e5" stroke-width="2"/>
  <rect x="220" y="440" width="360" height="12" rx="6" ry="6" fill="#e5e5e5"/>
  <rect x="220" y="470" width="260" height="12" rx="6" ry="6" fill="#e5e5e5"/>
</svg>